<svg xmlns="http://www.w3.org/2000/svg" xmlns:xlink="http://www.w3.org/1999/xlink" width="136" zoomAndPan="magnify" viewBox="0 0 102 30.000001" height="40" preserveAspectRatio="xMidYMid meet" version="1.2"><defs/><g id="dcbd98395f"><g style="fill:#ffffff;fill-opacity:1;"><g transform="translate(28.652127, 16.362148)"><path style="stroke:none" d="M 3.3125 0.09375 C 2.75 0.09375 2.238281 -0.0234375 1.78125 -0.265625 C 1.320312 -0.515625 0.960938 -0.859375 0.703125 -1.296875 C 0.441406 -1.734375 0.3125 -2.222656 0.3125 -2.765625 C 0.3125 -3.316406 0.441406 -3.8125 0.703125 -4.25 C 0.960938 -4.6875 1.320312 -5.023438 1.78125 -5.265625 C 2.238281 -5.515625 2.75 -5.640625 3.3125 -5.640625 C 3.800781 -5.640625 4.238281 -5.554688 4.625 -5.390625 C 5.007812 -5.222656 5.332031 -4.976562 5.59375 -4.65625 L 4.78125 -3.890625 C 4.40625 -4.328125 3.9375 -4.546875 3.375 -4.546875 C 3.039062 -4.546875 2.738281 -4.46875 2.46875 -4.3125 C 2.195312 -4.164062 1.984375 -3.957031 1.828125 -3.6875 C 1.679688 -3.414062 1.609375 -3.109375 1.609375 -2.765625 C 1.609375 -2.421875 1.679688 -2.113281 1.828125 -1.84375 C 1.984375 -1.582031 2.195312 -1.375 2.46875 -1.21875 C 2.738281 -1.070312 3.039062 -1 3.375 -1 C 3.9375 -1 4.40625 -1.21875 4.78125 -1.65625 L 5.59375 -0.890625 C 5.332031 -0.566406 5.003906 -0.320312 4.609375 -0.15625 C 4.222656 0.0078125 3.789062 0.09375 3.3125 0.09375 Z M 3.3125 0.09375 "/></g></g><g style="fill:#ffffff;fill-opacity:1;"><g transform="translate(34.460583, 16.362148)"><path style="stroke:none" d="M 0.578125 -5.875 L 1.8125 -5.875 L 1.8125 0 L 0.578125 0 Z M 0.578125 -5.875 "/></g></g><g style="fill:#ffffff;fill-opacity:1;"><g transform="translate(36.845774, 16.362148)"><path style="stroke:none" d="M 4.859375 -4.265625 L 4.859375 0 L 3.6875 0 L 3.6875 -0.5 C 3.53125 -0.320312 3.335938 -0.179688 3.109375 -0.078125 C 2.878906 0.015625 2.632812 0.0625 2.375 0.0625 C 1.8125 0.0625 1.363281 -0.0976562 1.03125 -0.421875 C 0.707031 -0.742188 0.546875 -1.222656 0.546875 -1.859375 L 0.546875 -4.265625 L 1.78125 -4.265625 L 1.78125 -2.03125 C 1.78125 -1.34375 2.066406 -1 2.640625 -1 C 2.941406 -1 3.179688 -1.09375 3.359375 -1.28125 C 3.535156 -1.476562 3.625 -1.769531 3.625 -2.15625 L 3.625 -4.265625 Z M 4.859375 -4.265625 "/></g></g><g style="fill:#ffffff;fill-opacity:1;"><g transform="translate(42.289715, 16.362148)"><path style="stroke:none" d="M 3.09375 -4.328125 C 3.488281 -4.328125 3.847656 -4.234375 4.171875 -4.046875 C 4.492188 -3.867188 4.75 -3.613281 4.9375 -3.28125 C 5.125 -2.945312 5.21875 -2.5625 5.21875 -2.125 C 5.21875 -1.6875 5.125 -1.300781 4.9375 -0.96875 C 4.75 -0.644531 4.492188 -0.390625 4.171875 -0.203125 C 3.847656 -0.0234375 3.488281 0.0625 3.09375 0.0625 C 2.5 0.0625 2.050781 -0.117188 1.75 -0.484375 L 1.75 0 L 0.578125 0 L 0.578125 -5.875 L 1.8125 -5.875 L 1.8125 -3.8125 C 2.125 -4.15625 2.550781 -4.328125 3.09375 -4.328125 Z M 2.875 -0.953125 C 3.1875 -0.953125 3.445312 -1.054688 3.65625 -1.265625 C 3.863281 -1.484375 3.96875 -1.769531 3.96875 -2.125 C 3.96875 -2.488281 3.863281 -2.773438 3.65625 -2.984375 C 3.445312 -3.203125 3.1875 -3.3125 2.875 -3.3125 C 2.5625 -3.3125 2.300781 -3.203125 2.09375 -2.984375 C 1.894531 -2.773438 1.796875 -2.488281 1.796875 -2.125 C 1.796875 -1.769531 1.894531 -1.484375 2.09375 -1.265625 C 2.300781 -1.054688 2.5625 -0.953125 2.875 -0.953125 Z M 2.875 -0.953125 "/></g></g><g style="fill:#fabc12;fill-opacity:1;"><g transform="translate(47.75787, 16.362148)"><path style="stroke:none" d=""/></g></g><g style="fill:#fabc12;fill-opacity:1;"><g transform="translate(50.000424, 16.362148)"><path style="stroke:none" d="M 0.65625 -5.546875 L 1.9375 -5.546875 L 1.9375 0 L 0.65625 0 Z M 0.65625 -5.546875 "/></g></g><g style="fill:#547dbf;fill-opacity:1;"><g transform="translate(52.599785, 16.362148)"><path style="stroke:none" d="M 3.15625 -4.328125 C 3.6875 -4.328125 4.113281 -4.164062 4.4375 -3.84375 C 4.757812 -3.53125 4.921875 -3.0625 4.921875 -2.4375 L 4.921875 0 L 3.6875 0 L 3.6875 -2.25 C 3.6875 -2.582031 3.613281 -2.832031 3.46875 -3 C 3.320312 -3.164062 3.109375 -3.25 2.828125 -3.25 C 2.515625 -3.25 2.265625 -3.148438 2.078125 -2.953125 C 1.898438 -2.765625 1.8125 -2.484375 1.8125 -2.109375 L 1.8125 0 L 0.578125 0 L 0.578125 -4.265625 L 1.75 -4.265625 L 1.75 -3.765625 C 1.914062 -3.941406 2.117188 -4.078125 2.359375 -4.171875 C 2.597656 -4.273438 2.863281 -4.328125 3.15625 -4.328125 Z M 3.15625 -4.328125 "/></g></g><g style="fill:#eb4335;fill-opacity:1;"><g transform="translate(58.076257, 16.362148)"><path style="stroke:none" d="M 3.3125 -0.203125 C 3.195312 -0.117188 3.050781 -0.0507812 2.875 0 C 2.695312 0.0390625 2.507812 0.0625 2.3125 0.0625 C 1.800781 0.0625 1.40625 -0.0664062 1.125 -0.328125 C 0.851562 -0.585938 0.71875 -0.96875 0.71875 -1.46875 L 0.71875 -3.21875 L 0.0625 -3.21875 L 0.0625 -4.171875 L 0.71875 -4.171875 L 0.71875 -5.203125 L 1.953125 -5.203125 L 1.953125 -4.171875 L 3.015625 -4.171875 L 3.015625 -3.21875 L 1.953125 -3.21875 L 1.953125 -1.484375 C 1.953125 -1.304688 2 -1.164062 2.09375 -1.0625 C 2.1875 -0.96875 2.316406 -0.921875 2.484375 -0.921875 C 2.679688 -0.921875 2.847656 -0.972656 2.984375 -1.078125 Z M 3.3125 -0.203125 "/></g></g><g style="fill:#30a953;fill-opacity:1;"><g transform="translate(61.389522, 16.362148)"><path style="stroke:none" d="M 4.75 -2.109375 C 4.75 -2.097656 4.738281 -1.988281 4.71875 -1.78125 L 1.5 -1.78125 C 1.550781 -1.519531 1.6875 -1.3125 1.90625 -1.15625 C 2.125 -1 2.394531 -0.921875 2.71875 -0.921875 C 2.9375 -0.921875 3.128906 -0.953125 3.296875 -1.015625 C 3.472656 -1.085938 3.632812 -1.195312 3.78125 -1.34375 L 4.4375 -0.625 C 4.039062 -0.164062 3.457031 0.0625 2.6875 0.0625 C 2.207031 0.0625 1.78125 -0.03125 1.40625 -0.21875 C 1.039062 -0.40625 0.753906 -0.664062 0.546875 -1 C 0.347656 -1.332031 0.25 -1.707031 0.25 -2.125 C 0.25 -2.539062 0.347656 -2.914062 0.546875 -3.25 C 0.742188 -3.59375 1.015625 -3.859375 1.359375 -4.046875 C 1.710938 -4.234375 2.101562 -4.328125 2.53125 -4.328125 C 2.945312 -4.328125 3.320312 -4.234375 3.65625 -4.046875 C 4 -3.867188 4.265625 -3.613281 4.453125 -3.28125 C 4.648438 -2.945312 4.75 -2.554688 4.75 -2.109375 Z M 2.53125 -3.390625 C 2.25 -3.390625 2.015625 -3.3125 1.828125 -3.15625 C 1.640625 -3 1.523438 -2.78125 1.484375 -2.5 L 3.578125 -2.5 C 3.535156 -2.769531 3.421875 -2.984375 3.234375 -3.140625 C 3.046875 -3.304688 2.8125 -3.390625 2.53125 -3.390625 Z M 2.53125 -3.390625 "/></g></g><g style="fill:#fabc12;fill-opacity:1;"><g transform="translate(66.389778, 16.362148)"><path style="stroke:none" d="M 1.75 -3.703125 C 1.894531 -3.910156 2.09375 -4.066406 2.34375 -4.171875 C 2.59375 -4.273438 2.882812 -4.328125 3.21875 -4.328125 L 3.21875 -3.1875 C 3.082031 -3.195312 2.988281 -3.203125 2.9375 -3.203125 C 2.582031 -3.203125 2.304688 -3.101562 2.109375 -2.90625 C 1.910156 -2.707031 1.8125 -2.410156 1.8125 -2.015625 L 1.8125 0 L 0.578125 0 L 0.578125 -4.265625 L 1.75 -4.265625 Z M 1.75 -3.703125 "/></g></g><g style="fill:#547dbf;fill-opacity:1;"><g transform="translate(69.774476, 16.362148)"><path style="stroke:none" d="M 3.15625 -4.328125 C 3.6875 -4.328125 4.113281 -4.164062 4.4375 -3.84375 C 4.757812 -3.53125 4.921875 -3.0625 4.921875 -2.4375 L 4.921875 0 L 3.6875 0 L 3.6875 -2.25 C 3.6875 -2.582031 3.613281 -2.832031 3.46875 -3 C 3.320312 -3.164062 3.109375 -3.25 2.828125 -3.25 C 2.515625 -3.25 2.265625 -3.148438 2.078125 -2.953125 C 1.898438 -2.765625 1.8125 -2.484375 1.8125 -2.109375 L 1.8125 0 L 0.578125 0 L 0.578125 -4.265625 L 1.75 -4.265625 L 1.75 -3.765625 C 1.914062 -3.941406 2.117188 -4.078125 2.359375 -4.171875 C 2.597656 -4.273438 2.863281 -4.328125 3.15625 -4.328125 Z M 3.15625 -4.328125 "/></g></g></g></svg>