<svg xmlns="http://www.w3.org/2000/svg" xmlns:xlink="http://www.w3.org/1999/xlink" width="1080" zoomAndPan="magnify" viewBox="0 0 810 809.999993" height="1080" preserveAspectRatio="xMidYMid meet" version="1.2"><defs/><g id="1837d1b14a"><g style="fill:#ffffff;fill-opacity:1;"><g transform="translate(58.980051, 421.145415)"><path style="stroke:none" d="M 50.296875 1.4375 C 41.710938 1.4375 33.953125 -0.425781 27.015625 -4.15625 C 20.078125 -7.882812 14.617188 -13.054688 10.640625 -19.671875 C 6.671875 -26.296875 4.6875 -33.78125 4.6875 -42.125 C 4.6875 -50.46875 6.671875 -57.945312 10.640625 -64.5625 C 14.617188 -71.1875 20.078125 -76.363281 27.015625 -80.09375 C 33.953125 -83.820312 41.753906 -85.6875 50.421875 -85.6875 C 57.722656 -85.6875 64.320312 -84.398438 70.21875 -81.828125 C 76.113281 -79.265625 81.066406 -75.578125 85.078125 -70.765625 L 72.5625 -59.203125 C 66.863281 -65.785156 59.804688 -69.078125 51.390625 -69.078125 C 46.171875 -69.078125 41.515625 -67.929688 37.421875 -65.640625 C 33.335938 -63.359375 30.148438 -60.171875 27.859375 -56.078125 C 25.578125 -51.984375 24.4375 -47.332031 24.4375 -42.125 C 24.4375 -36.90625 25.578125 -32.25 27.859375 -28.15625 C 30.148438 -24.0625 33.335938 -20.867188 37.421875 -18.578125 C 41.515625 -16.296875 46.171875 -15.15625 51.390625 -15.15625 C 59.804688 -15.15625 66.863281 -18.488281 72.5625 -25.15625 L 85.078125 -13.59375 C 81.066406 -8.707031 76.09375 -4.976562 70.15625 -2.40625 C 64.21875 0.15625 57.597656 1.4375 50.296875 1.4375 Z M 50.296875 1.4375 "/></g></g><g style="fill:#ffffff;fill-opacity:1;"><g transform="translate(147.188088, 421.145415)"><path style="stroke:none" d="M 8.671875 -89.296875 L 27.4375 -89.296875 L 27.4375 0 L 8.671875 0 Z M 8.671875 -89.296875 "/></g></g><g style="fill:#ffffff;fill-opacity:1;"><g transform="translate(183.409944, 421.145415)"><path style="stroke:none" d="M 73.890625 -64.75 L 73.890625 0 L 56.078125 0 L 56.078125 -7.703125 C 53.585938 -4.890625 50.617188 -2.738281 47.171875 -1.25 C 43.722656 0.226562 39.992188 0.96875 35.984375 0.96875 C 27.472656 0.96875 20.726562 -1.476562 15.75 -6.375 C 10.78125 -11.269531 8.296875 -18.53125 8.296875 -28.15625 L 8.296875 -64.75 L 27.078125 -64.75 L 27.078125 -30.921875 C 27.078125 -20.492188 31.445312 -15.28125 40.1875 -15.28125 C 44.6875 -15.28125 48.300781 -16.742188 51.03125 -19.671875 C 53.757812 -22.597656 55.125 -26.953125 55.125 -32.734375 L 55.125 -64.75 Z M 73.890625 -64.75 "/></g></g><g style="fill:#ffffff;fill-opacity:1;"><g transform="translate(266.082407, 421.145415)"><path style="stroke:none" d="M 46.9375 -65.703125 C 52.945312 -65.703125 58.421875 -64.316406 63.359375 -61.546875 C 68.296875 -58.785156 72.164062 -54.894531 74.96875 -49.875 C 77.78125 -44.863281 79.1875 -39.03125 79.1875 -32.375 C 79.1875 -25.71875 77.78125 -19.878906 74.96875 -14.859375 C 72.164062 -9.847656 68.296875 -5.957031 63.359375 -3.1875 C 58.421875 -0.414062 52.945312 0.96875 46.9375 0.96875 C 38.03125 0.96875 31.25 -1.84375 26.59375 -7.46875 L 26.59375 0 L 8.671875 0 L 8.671875 -89.296875 L 27.4375 -89.296875 L 27.4375 -57.890625 C 32.164062 -63.097656 38.664062 -65.703125 46.9375 -65.703125 Z M 43.6875 -14.4375 C 48.5 -14.4375 52.445312 -16.0625 55.53125 -19.3125 C 58.625 -22.5625 60.171875 -26.914062 60.171875 -32.375 C 60.171875 -37.832031 58.625 -42.179688 55.53125 -45.421875 C 52.445312 -48.671875 48.5 -50.296875 43.6875 -50.296875 C 38.875 -50.296875 34.921875 -48.671875 31.828125 -45.421875 C 28.742188 -42.179688 27.203125 -37.832031 27.203125 -32.375 C 27.203125 -26.914062 28.742188 -22.5625 31.828125 -19.3125 C 34.921875 -16.0625 38.875 -14.4375 43.6875 -14.4375 Z M 43.6875 -14.4375 "/></g></g><g style="fill:#fabc12;fill-opacity:1;"><g transform="translate(349.122572, 421.145415)"><path style="stroke:none" d=""/></g></g><g style="fill:#fabc12;fill-opacity:1;"><g transform="translate(383.17833, 421.145415)"><path style="stroke:none" d="M 9.984375 -84.234375 L 29.484375 -84.234375 L 29.484375 0 L 9.984375 0 Z M 9.984375 -84.234375 "/></g></g><g style="fill:#547dbf;fill-opacity:1;"><g transform="translate(422.65259, 421.145415)"><path style="stroke:none" d="M 48.015625 -65.703125 C 56.035156 -65.703125 62.515625 -63.296875 67.453125 -58.484375 C 72.390625 -53.671875 74.859375 -46.53125 74.859375 -37.0625 L 74.859375 0 L 56.078125 0 L 56.078125 -34.171875 C 56.078125 -39.304688 54.953125 -43.140625 52.703125 -45.671875 C 50.460938 -48.203125 47.21875 -49.46875 42.96875 -49.46875 C 38.226562 -49.46875 34.453125 -48 31.640625 -45.0625 C 28.835938 -42.132812 27.4375 -37.785156 27.4375 -32.015625 L 27.4375 0 L 8.671875 0 L 8.671875 -64.75 L 26.59375 -64.75 L 26.59375 -57.15625 C 29.082031 -59.882812 32.171875 -61.988281 35.859375 -63.46875 C 39.546875 -64.957031 43.597656 -65.703125 48.015625 -65.703125 Z M 48.015625 -65.703125 "/></g></g><g style="fill:#eb4335;fill-opacity:1;"><g transform="translate(505.819066, 421.145415)"><path style="stroke:none" d="M 50.421875 -3.125 C 48.578125 -1.757812 46.3125 -0.734375 43.625 -0.046875 C 40.9375 0.628906 38.109375 0.96875 35.140625 0.96875 C 27.441406 0.96875 21.484375 -0.992188 17.265625 -4.921875 C 13.054688 -8.859375 10.953125 -14.640625 10.953125 -22.265625 L 10.953125 -48.859375 L 0.96875 -48.859375 L 0.96875 -63.296875 L 10.953125 -63.296875 L 10.953125 -79.0625 L 29.71875 -79.0625 L 29.71875 -63.296875 L 45.84375 -63.296875 L 45.84375 -48.859375 L 29.71875 -48.859375 L 29.71875 -22.5 C 29.71875 -19.769531 30.421875 -17.660156 31.828125 -16.171875 C 33.234375 -14.691406 35.21875 -13.953125 37.78125 -13.953125 C 40.75 -13.953125 43.28125 -14.753906 45.375 -16.359375 Z M 50.421875 -3.125 "/></g></g><g style="fill:#30a953;fill-opacity:1;"><g transform="translate(556.134778, 421.145415)"><path style="stroke:none" d="M 72.078125 -32.125 C 72.078125 -31.882812 71.957031 -30.203125 71.71875 -27.078125 L 22.75 -27.078125 C 23.625 -23.066406 25.707031 -19.894531 29 -17.5625 C 32.289062 -15.238281 36.382812 -14.078125 41.28125 -14.078125 C 44.644531 -14.078125 47.628906 -14.578125 50.234375 -15.578125 C 52.847656 -16.585938 55.28125 -18.175781 57.53125 -20.34375 L 67.515625 -9.5 C 61.410156 -2.519531 52.503906 0.96875 40.796875 0.96875 C 33.492188 0.96875 27.035156 -0.453125 21.421875 -3.296875 C 15.804688 -6.148438 11.472656 -10.101562 8.421875 -15.15625 C 5.367188 -20.21875 3.84375 -25.957031 3.84375 -32.375 C 3.84375 -38.707031 5.347656 -44.421875 8.359375 -49.515625 C 11.367188 -54.609375 15.5 -58.578125 20.75 -61.421875 C 26.007812 -64.273438 31.890625 -65.703125 38.390625 -65.703125 C 44.722656 -65.703125 50.457031 -64.335938 55.59375 -61.609375 C 60.726562 -58.890625 64.757812 -54.976562 67.6875 -49.875 C 70.613281 -44.78125 72.078125 -38.863281 72.078125 -32.125 Z M 38.515625 -51.5 C 34.253906 -51.5 30.679688 -50.296875 27.796875 -47.890625 C 24.910156 -45.484375 23.144531 -42.195312 22.5 -38.03125 L 54.390625 -38.03125 C 53.753906 -42.125 51.988281 -45.390625 49.09375 -47.828125 C 46.207031 -50.273438 42.679688 -51.5 38.515625 -51.5 Z M 38.515625 -51.5 "/></g></g><g style="fill:#fabc12;fill-opacity:1;"><g transform="translate(632.069386, 421.145415)"><path style="stroke:none" d="M 26.59375 -56.203125 C 28.84375 -59.328125 31.867188 -61.691406 35.671875 -63.296875 C 39.484375 -64.898438 43.878906 -65.703125 48.859375 -65.703125 L 48.859375 -48.375 C 46.773438 -48.539062 45.367188 -48.625 44.640625 -48.625 C 39.265625 -48.625 35.050781 -47.117188 32 -44.109375 C 28.957031 -41.097656 27.4375 -36.582031 27.4375 -30.5625 L 27.4375 0 L 8.671875 0 L 8.671875 -64.75 L 26.59375 -64.75 Z M 26.59375 -56.203125 "/></g></g><g style="fill:#547dbf;fill-opacity:1;"><g transform="translate(683.46989, 421.145415)"><path style="stroke:none" d="M 48.015625 -65.703125 C 56.035156 -65.703125 62.515625 -63.296875 67.453125 -58.484375 C 72.390625 -53.671875 74.859375 -46.53125 74.859375 -37.0625 L 74.859375 0 L 56.078125 0 L 56.078125 -34.171875 C 56.078125 -39.304688 54.953125 -43.140625 52.703125 -45.671875 C 50.460938 -48.203125 47.21875 -49.46875 42.96875 -49.46875 C 38.226562 -49.46875 34.453125 -48 31.640625 -45.0625 C 28.835938 -42.132812 27.4375 -37.785156 27.4375 -32.015625 L 27.4375 0 L 8.671875 0 L 8.671875 -64.75 L 26.59375 -64.75 L 26.59375 -57.15625 C 29.082031 -59.882812 32.171875 -61.988281 35.859375 -63.46875 C 39.546875 -64.957031 43.597656 -65.703125 48.015625 -65.703125 Z M 48.015625 -65.703125 "/></g></g></g></svg>